<svg width="48" height="48" xmlns="http://www.w3.org/2000/svg" xmlns:xlink="http://www.w3.org/1999/xlink"><use xlink:href="#path0_stroke" transform="translate(12 38)" fill="#1AB0CE"/><use xlink:href="#path0_stroke" transform="translate(36 38)" fill="#1AB0CE"/><use xlink:href="#path1_stroke" transform="translate(2 2)" fill="#1AB0CE"/><defs><path id="path0_stroke" d="M6 4c0 1.10457-.89543 2-2 2v4c3.31371 0 6-2.68629 6-6H6zM4 6c-1.10457 0-2-.89543-2-2h-4c0 3.31371 2.686291 6 6 6V6zM2 4c0-1.10457.89543-2 2-2v-4C.686291-2-2 .686291-2 4h4zm2-2c1.10457 0 2 .89543 2 2h4c0-3.313709-2.68629-6-6-6v4z"/><path id="path1_stroke" d="M9.34 8c-1.10457 0-2 .89543-2 2 0 1.1046.89543 2 2 2V8zM44 10l1.9611.3927c.1176-.58762-.0344-1.19702-.4143-1.6605C45.167 8.26872 44.5993 8 44 8v2zm-3.36 16.78l-1.9611-.3927-.0006.0031 1.9617.3896zm-4 3.22l.0383-1.9996C36.6655 28.0001 36.6528 28 36.64 28v2zM15.5 30v-2c-.0057 0-.0113 0-.017.0001L15.5 30zm-4-3.48l1.983-.2599-.0002-.0017L11.5 26.52zM8.46 3.48l-1.98303.26.00022.00162L8.46 3.48zM4.5 0l.00303-2H4.5v2zM0-2c-1.10457 0-2 .89543-2 2s.89543 2 2 2v-4zm9.34 14H44V8H9.34v4zm32.6989-2.39268l-3.36 16.77998 3.9222.7854 3.36-16.78-3.9222-.78538zM38.6783 26.3904c-.1887.9502-1.0314 1.6285-2 1.61l-.0766 3.9992c2.9058.0557 5.4338-1.9793 6-4.83l-3.9234-.7792zM36.64 28H15.5v4h21.14v-4zm-21.157.0001c-1.0105.0085-1.8686-.738-2-1.74l-3.96604.5198c.39401 3.006 2.96844 5.2457 6.00004 5.22l-.034-3.9998zm-2.0002-1.7417l-3.04-23.04002-3.96561.52324 3.04 23.03998 3.96561-.5232zM10.443 3.22C10.0519.23679 7.51177-1.99544 4.50303-2l-.00606 4c1.00292.00152 1.84962.74559 1.98 1.74l3.96603-.52zM4.5-2H0v4h4.5v-4z"/></defs></svg>