<svg width="25" height="25" xmlns="http://www.w3.org/2000/svg" xmlns:xlink="http://www.w3.org/1999/xlink"><use xlink:href="#path0_stroke" transform="translate(1 1)" fill="#FFF"/><defs><path id="path0_stroke" d="M22.9993 17.2199l-.9997-.0248c-.0002.0082-.0003.0165-.0003.0248h1zm0 3.4624h-1v.0041l1-.0041zm-2.521 2.3083l-.1079.9942.018.0018.0899-.996zm-9.9801-3.5432l.5434-.8395-.0078-.005-.5356.8445zm-6.93856-6.9248l.84357-.5371-.00478-.0074-.83879.5445zM.00939462 2.51614l-.99592562.09018c.000472.00521.000985.01042.001539.01563l.99438662-.10581zM.604687.752177l.737893.674913L.604687.752177zM2.3107.00011347V-.999887l-.00094.000001.00094.99999947zm3.46929 0V1.00016l.00983-.00009-.00983-.99995653zM8.09286 1.98524l.99142-.13102-.0013-.00921-.99012.14023zm.8095 3.24314l-.93667.35021.00085.00226.93582-.35247zm-.52039 2.43524l.70641.70781.00394-.00397-.71035-.70384zM6.9133 9.12938l-.70641-.70781c-.31911.31848-.38565.81111-.16246 1.20284l.86887-.49503zm6.9386 6.92482l-.4936.8697c.391.2219.8819.1556 1.2-.1619l-.7064-.7078zm1.4687-1.4657l-.7025-.7118-.0039.004.7064.7078zm2.44-.5194l-.3512.9363.0022.0008.349-.9371zm3.2496.8079l.1394-.9903-.0089-.0011-.1305.9914zm.9891 2.3429v3.4624h2v-3.4624h-2zm0 3.4665c.0015.3677-.1524.7194-.4246.9687l1.3506 1.4751c.6876-.6296 1.0778-1.5197 1.074-2.4519l-2 .0081zm-.4246.9687c-.2723.2493-.6378.3728-1.0066.3396l-.1797 1.9919c.9284.0837 1.8494-.227 2.5369-.8564l-1.3506-1.4751zm-.9886.3414c-3.4437-.3667-6.6426-1.5024-9.5445-3.3886l-1.0867 1.679c3.1046 2.0013 6.7421 3.2927 10.4155 3.6979l.2157-1.9883zm-9.5523-3.3936c-2.70497-1.7083-4.91899-3.9179-6.63063-6.6174l-1.68706 1.0741c1.83939 2.8778 4.36325 5.3966 7.24657 7.2323l1.07112-1.689zm-6.63537-6.6248c-1.8964-2.90893-3.03431-6.11613-3.39465-9.56776l-1.988772.21161C-.586148 6.30521.70846 9.9541 2.72086 13.067l1.67757-1.0889zM1.00532 2.42597c-.033055-.36507.08909-.72755.33726-.99888L-.133206.0772587C-.760442.76302-1.07034 1.68076-.986531 2.60632l1.991851-.18035zm.33726-.99888c.24825-.27141.59984-.42663.96906-.42698L2.30976-.999886C1.38051-.999013.49395-.608416-.133206.0772587L1.34258 1.42709zm.96812-.42698h3.46929V-.999887H2.3107V1.00011zm3.47912-.00004c.66059-.006494 1.22102.47652 1.31292 1.12539l1.98024-.28045C8.84992.199377 7.43138-1.01616 5.77017-.999838l.01965 1.999908zm1.31166 1.11618c.15543 1.16393.45439 2.36167.86421 3.46234l1.87334-.70043c-.3732-.99357-.61736-1.97176-.75479-3.02393l-1.98276.26202zm.86506 3.4646c.17977.47728.06503 1.01563-.29493 1.37892l1.42071 1.40769c.90988-.91826 1.20148-2.28177.74587-3.49156l-1.87165.70495zm-.29098 1.37496L6.20689 8.42157 7.6197 9.83718l1.46867-1.46576-1.41281-1.41561zm-1.63113 2.6686c1.72032 3.00129 4.30687 5.58279 7.31387 7.29949l.9871-1.7394c-2.7833-1.5692-4.99106-3.7726-6.56323-6.55016l-1.73774.99007zM14.5583 16.762l1.4687-1.4657-1.4128-1.4156-1.4687 1.4657 1.4128 1.4156zm1.4647-1.4618c.3643-.3595.9058-.4751 1.3864-.2948l.7025-1.8726c-1.2098-.4539-2.574-.1638-3.4938.7439l1.4049 1.4235zm1.3886-.294c1.1026.4089 2.3022.7072 3.4681.8623l.261-1.9829c-1.0546-.1373-2.0353-.3811-3.0311-.7536l-.698 1.8742zm3.4592.861c.6615.0932 1.1453.6654 1.1288 1.3279l1.9994.0497c.0418-1.681-1.1851-3.1237-2.8494-3.358l-.2788 1.9804z"/></defs></svg>